# xmcd
#
# Track frame offsets:
#	150
#	19502
#	36662
#	56585
#	73297
#	85095
#	99972
#	115690
#	127042
#	138282
#	153885
#	168785
#	180525
#	197215
#	216982
#	233922
#
# Disc length: 3374 seconds
#
# Revision: 0
# Processed by: cddbd v1.5.2PL0 Copyright (c) Steve Scherf et al.
# Submitted via: audiograbber 1.83.01
#
DISCID=da0d2c10
DTITLE=Garth Brooks - Sing The Hits Of Garth Brooks
DYEAR=1994
DGENRE=Country
TTITLE0=Friends in Low Places
TTITLE1=River, The
TTITLE2=Shameless
TTITLE3=If Tomorrow Never Comes
TTITLE4=Two of a Kind
TTITLE5=Dance, The
TTITLE6=Rodeo
TTITLE7=Papa Loved Mama
TTITLE8=Papa Loved Mama (vocal)
TTITLE9=Rodeo (vocal)
TTITLE10=Dance, The (vocal)
TTITLE11=Two of a Kind (vocal)
TTITLE12=If Tomorrow Never Comes (vocal)
TTITLE13=Shameless (vocal)
TTITLE14=River, The (vocal)
TTITLE15=Friends in Low Places (vocal)
EXTD=
EXTT0=
EXTT1=
EXTT2=
EXTT3=
EXTT4=
EXTT5=
EXTT6=
EXTT7=
EXTT8=
EXTT9=
EXTT10=
EXTT11=
EXTT12=
EXTT13=
EXTT14=
EXTT15=
PLAYORDER=
